# xmcd
#
# Track frame offsets: 
#        150
#        15506
#        30988
#        51662
#        66999
#        82833
#        97925
#        116794
#        129739
#        147153
#        161615
#        175526
#        201060
#        221748
#
# Disc length: 3119 seconds
#
# Revision: 2
# Processed by: cddbd v1.5.1PL0 Copyright (c) Steve Scherf et al.
# Submitted via: ExactAudioCopy v0.95a3
#
DISCID=bd0c2d0e
DTITLE=Mohd. Rafi - Bemisaal - Vol.1
DYEAR=1999
DGENRE=Punjabi
TTITLE0=Chitte Dand Hasno Nahin Rahnde
TTITLE1=Chunni Apni Nu
TTITLE2=Yarran Naal Baharan
TTITLE3=Rab Na Kare
TTITLE4=Jagwala Mela
TTITLE5=Dana Pani Khich Ke Leyanda
TTITLE6=Saanu Buk Nal Pani
TTITLE7=Damdi Da Satt
TTITLE8=Main Yamla Jat
TTITLE9=Dil Ley Gaya Koi
TTITLE10=Darh Wat Zamana Kat
TTITLE11=Meriya  Malika
TTITLE12=Sohnio Makhno
TTITLE13=Pagri Samhaal Jatta
EXTD=
EXTT0=
EXTT1=
EXTT2=
EXTT3=
EXTT4=
EXTT5=
EXTT6=
EXTT7=
EXTT8=
EXTT9=
EXTT10=
EXTT11=
EXTT12=
EXTT13=
PLAYORDER=
